{
	"asset":{
		"generator":"Khronos glTF Blender I/O v3.6.28",
		"version":"2.0"
	},
	"scene":0,
	"scenes":[
		{
			"name":"Scene",
			"nodes":[
				0
			]
		}
	],
	"nodes":[
		{
			"name":"MMD_Camera",
			"rotation":[
				0.01447695679962635,
				0.0025479113683104515,
				-3.688997821882367e-05,
				0.9998920559883118
			],
			"translation":[
				-0.01263381540775299,
				0.7902530431747437,
				10.865711212158203
			]
		}
	],
	"animations":[
		{
			"channels":[
				{
					"sampler":0,
					"target":{
						"node":0,
						"path":"translation"
					}
				},
				{
					"sampler":1,
					"target":{
						"node":0,
						"path":"rotation"
					}
				}
			],
			"name":"Camera_camera",
			"samplers":[
				{
					"input":0,
					"interpolation":"LINEAR",
					"output":1
				},
				{
					"input":0,
					"interpolation":"LINEAR",
					"output":2
				}
			]
		}
	],
	"accessors":[
		{
			"bufferView":0,
			"componentType":5126,
			"count":4459,
			"max":[
				148.8
			],
			"min":[
				0.2
			],
			"type":"SCALAR"
		},
		{
			"bufferView":1,
			"componentType":5126,
			"count":4459,
			"type":"VEC3"
		},
		{
			"bufferView":2,
			"componentType":5126,
			"count":4459,
			"type":"VEC4"
		}
	],
	"bufferViews":[
		{
			"buffer":0,
			"byteLength":17836,
			"byteOffset":0
		},
		{
			"buffer":0,
			"byteLength":53508,
			"byteOffset":17836
		},
		{
			"buffer":0,
			"byteLength":71344,
			"byteOffset":71344
		}
	],
	"buffers":[
		{
			"byteLength":142688,
			"uri":"data:application/octet-stream;base64,"
		}
	]
}
